<?xml version="1.0" encoding="utf-8"?>
<!-- Generator: Adobe Illustrator 16.0.0, SVG Export Plug-In . SVG Version: 6.00 Build 0)  -->
<!DOCTYPE svg PUBLIC "-//W3C//DTD SVG 1.1//EN" "http://www.w3.org/Graphics/SVG/1.1/DTD/svg11.dtd">
<svg version="1.1" id="Layer_1" xmlns="http://www.w3.org/2000/svg" xmlns:xlink="http://www.w3.org/1999/xlink" x="0px" y="0px"
	 width="2104.296px" height="1153.397px" viewBox="0 0 2104.296 1153.397" enable-background="new 0 0 2104.296 1153.397"
	 xml:space="preserve">
<g>
	<path fill="#343434" d="M484.1,548.271c25.479,12.74,37.92,23.488,38.219,50.958c0.324,29.857-18.634,50.958-44.588,50.958
		c-25.48,0-37.579-12.42-50.958-19.109c-25.479-12.739-58.111-31.849-114.655-31.849c-104.747,0-210.201,102.834-210.201,229.311
		c0,146.927,79.618,229.311,203.832,229.311c105.672,0,170.129-80.059,171.983-165.614H375.815
		c-31.849,0-44.588-20.414-44.588-44.588c0-24.184,13.995-43.66,44.588-44.588H496.84c63.697,0,82.807,19.11,82.807,70.068
		c0,163.672-107.856,280.269-280.269,280.269C127.887,1153.397,0,1021.038,0,828.54c0-185.063,145.26-324.856,312.118-324.856
		C388.128,503.683,438.169,525.305,484.1,548.271z"/>
	<path fill="#343434" d="M668.823,484.57c31.849,0.003,50.958,12.743,50.958,50.962c0,69.754,0,566.906,0,566.906
		c0,31.849-19.109,50.959-50.958,50.959s-50.958-19.11-50.958-50.959V535.532C617.865,497.313,643.344,484.567,668.823,484.57z"/>
	<path fill="#343434" d="M828.066,771.212c31.85,0,50.958,12.738,50.958,50.958c0,69.755,0,280.268,0,280.268
		c0,31.849-19.108,50.959-50.958,50.959c-31.848,0-50.957-19.11-50.957-50.959V822.17
		C777.109,783.951,802.588,771.212,828.066,771.212z"/>
	<path fill="#343434" d="M1337.646,1115.178c0,19.108-19.109,38.219-44.59,38.219c-25.478,0-44.588-19.11-44.588-38.219v-38.22
		c-31.848,50.959-70.065,76.438-140.133,76.438c-127.405,0-203.833-108.286-203.833-216.572c0-121.024,91.958-222.94,216.572-222.94
		c49.288,0,95.546,12.738,121.024,50.958v-229.31c0-38.219,19.11-50.958,50.958-50.958c31.85,0,44.59,12.739,44.59,50.958
		C1337.646,535.532,1337.646,1076.958,1337.646,1115.178z M1114.705,1070.589c66.027,0,127.394-50.957,127.394-127.394
		c0-82.808-44.588-140.136-127.394-140.136c-63.697,0-114.655,63.698-114.655,140.136
		C1000.049,1013.261,1050.538,1070.589,1114.705,1070.589z"/>
	<path fill="#343434" d="M1586.066,1064.221c70.066,0,57.326-50.96,108.286-50.96c25.478,0,44.588,25.846,44.588,50.96
		c0,19.107-12.156,39.139-31.849,50.957c-31.849,19.108-63.699,38.219-140.136,38.219c-127.395,0-197.462-108.286-197.462-222.941
		c0-127.396,76.567-222.94,197.462-222.94c108.805,0,184.725,95.545,184.725,171.982c0,57.327-6.371,76.436-63.7,76.436
		c-44.588,0-105.902,0-216.57,0C1471.41,1000.521,1515.999,1064.221,1586.066,1064.221z M1662.503,879.498
		c0-50.958-44.588-89.178-95.547-89.178c-50.957,0-95.546,38.22-95.546,89.178C1490.52,879.498,1643.393,879.498,1662.503,879.498z"
		/>
	<circle fill="#343434" cx="827.165" cy="652.27" r="57.328"/>
	<g>
		<path fill="#006CAE" d="M2095.486,5.372c-6.433-6.002-15.702-6.525-24.839-3.772c-6.62,1.994-800.217,224.558-802.223,225.283
			c-7.9,2.868-12.171,9.509-11.153,17.296c0.957,7.685,7.903,11.303,13.06,13.837c3.978,1.957,188.899,89.839,193.314,94.299
			c3.754,3.795,61.416,156.249,63.044,160.162c1.962,4.78,5.594,12.338,11.368,13.234c6.854,1.064,11.942,0,15.261-2.286
			c4.346-2.992,45.646-36.465,49.76-39.78l4.15-3.35c2.62-1.542,3.041-3.31,8.59-2.92c3.907,0.506,10.483,5.882,15.296,9.953
			c5.176,4.379,212.27,170.896,216.198,173.21c5.263,3.092,10.416,4.838,15.312,4.838c0,0,0,0,0.004,0
			c2.428,0,4.817-0.568,7.112-1.334c8.083-2.734,14.405-8.78,17.346-16.41c1.98-5.106,89.891-261.49,172.136-501.358
			c21.352-62.279,42.5-108.979,43.265-111.176C2106.403,23.798,2103.915,13.226,2095.486,5.372z M1889.332,134.175
			c-110.329,83.444-335.621,253.978-335.621,253.978c-4.507,3.471-8.402,6.47-11.263,12.077c-2.405,4.718-2.901,9.013-3.769,16.512
			c-0.499,4.174-1.988,24.506-3.112,32.63c-3.498-9.135-19.404-52.861-29.794-78.465c-4.989-12.292-8.689-21.395-9.053-22.36
			c-0.226-0.582-0.507-1.215-0.801-1.899c-1.755-4.068,1.418-6.82,2.745-7.509c0.756-0.392,1.493-0.777,2.182-1.163
			C1505.344,335.491,1762.987,200.408,1889.332,134.175z"/>
	</g>
	<path fill="#004E7A" d="M1555.116,507.779c-7.667,5.315-13.135,2.078-12.153-7.197l6.677-63.097
		c0.982-9.281,7.672-12.005,14.865-6.065l44.173,36.729L1555.116,507.779z"/>
</g>
</svg>
